{"title":"The Hollow 2016 WEB-DL x264-FGT","uid":15985967,"size":1184676445,"categoryP":"video","categoryS":"movies","magnet":"?xt=urn:btih:fa137e8223c374a0178e9b895b52b3c080149d02&amp;dn=The+Hollow+2016+WEB-DL+x264-FGT&amp;tr=udp%3A%2F%2Ftracker.leechers-paradise.org%3A6969&amp;tr=udp%3A%2F%2Fzer0day.ch%3A1337&amp;tr=udp%3A%2F%2Fopen.demonii.com%3A1337&amp;tr=udp%3A%2F%2Ftracker.coppersurfer.tk%3A6969&amp;tr=udp%3A%2F%2Fexodus.desync.com%3A6969","seeders":6,"leechers":1,"uploader":"PirateNeon2","files":1,"time":1475969470,"description":"Plot:\tWhen a U.S. congressman's daughter passing through a small town in Mississippi dies in a mysterious triple homicide| a team of F.B.I. agents descends to investigate|\r\nthe team's brilliant but jaded lead agent battling demons both past and present| as his beautiful| tough-as-nails partner tries to hold him and the case together.\r\nThey find a struggling and corrupt sheriff's department| a shadowy and much-feared figure| who seems to be pulling all of the town's strings from his mansion on the\r\nedge of town and a local victim with a strange connection to a number of the town's most prominent figures.\r\n\r\n\r\nVideo\r\nID                                       : 1\r\nFormat                                   : AVC\r\nFormat/Info                              : Advanced Video Codec\r\nFormat profile                           :   \r\nFormat settings, CABAC                   : Yes\r\nFormat settings, ReFrames                : 5 frames\r\nCodec ID                                 : avc1\r\nCodec ID/Info                            : Advanced Video Coding\r\nDuration                                 : 2h 8mn\r\nBit rate                                 : 1 100 Kbps\r\nWidth                                    : 720 pixels\r\nHeight                                   : 304 pixels\r\nDisplay aspect ratio                     : 2.40:1\r\nOriginal display aspect ratio            : 2.40:1\r\nFrame rate mode                          : Constant\r\nFrame rate                               : 23.976 (24000/1001) fps\r\nColor space                              : YUV\r\nChroma subsampling                       : 4:2:0\r\nBit depth                                : 8 bits\r\nScan type                                : Progressive\r\nBits/(Pixel*Frame)                       : 0.210\r\nStream size                              : 1 007 MiB (89%)\r\nTitle                                    : The.Hollow.2016.WEB-DL.x264-FGT\r\nWriting library                          : x264 core 148 r2597M e86f3a1\r\n\r\nAudio\r\nID                                       : 2\r\nFormat                                   : AAC\r\nFormat/Info                              : Advanced Audio Codec\r\nFormat profile                           : LC\r\nCodec ID                                 : 40\r\nDuration                                 : 2h 8mn\r\nDuration_LastFrame                       : 32ms\r\nBit rate mode                            : Variable\r\nBit rate                                 : 128 Kbps\r\nMaximum bit rate                         : 31.3 Mbps\r\nChannel(s)                               : 2 channels\r\nChannel positions                        : Front: L R\r\nSampling rate                            : 48.0 KHz\r\nFrame rate                               : 46.875 fps (1024 spf)\r\nCompression mode                         : Lossy\r\nStream size                              : 118 MiB (10%)\r\nTitle                                    : The.Hollow.2016.WEB-DL.x264-FGT\r\nLanguage                                 : English\r\nDefault                                  : Yes\r\nAlternate group                          : 1","torrent":{"xt":"urn:btih:fa137e8223c374a0178e9b895b52b3c080149d02","amp;dn":"The+Hollow+2016+WEB-DL+x264-FGT","amp;tr":["udp%3A%2F%2Ftracker.leechers-paradise.org%3A6969","udp%3A%2F%2Fzer0day.ch%3A1337","udp%3A%2F%2Fopen.demonii.com%3A1337","udp%3A%2F%2Ftracker.coppersurfer.tk%3A6969","udp%3A%2F%2Fexodus.desync.com%3A6969"],"infoHash":"fa137e8223c374a0178e9b895b52b3c080149d02","infoHashBuffer":{"type":"Buffer","data":[250,19,126,130,35,195,116,160,23,142,155,137,91,82,179,192,128,20,157,2]},"announce":[],"urlList":[]}}